<svg xmlns="http://www.w3.org/2000/svg" width="13" height="16" viewBox="0 0 13 16"><g><g><path fill="#fff" d="M12.071 15.369a1.479 1.479 0 0 1-1.227.648H2.122a1.48 1.48 0 0 1-1.228-.648 1.455 1.455 0 0 1-.142-1.372l3.059-8.25V3.313a1.47 1.47 0 0 1-.995-1.385v-.397c0-.809.664-1.466 1.48-1.466H8.67c.816 0 1.48.657 1.48 1.466v.397a1.47 1.47 0 0 1-.995 1.385v2.432l3.065 8.267c.18.437.127.95-.149 1.356zm-7.459-2.73c.28 0 .506-.223.506-.5s-.226-.5-.506-.5a.5.5 0 1 0 0 1zm1.876.798c0 .477.389.865.871.865a.868.868 0 0 0 .871-.865.868.868 0 0 0-.871-.862.867.867 0 0 0-.87.862zm.758-2.132c.346 0 .627-.28.627-.623a.626.626 0 0 0-.627-.622.627.627 0 0 0-.629.622c0 .343.282.623.63.623zM3.648 8.997h.045S8.363 8.921 9 8.263l.034-.03-.859-2.314V2.425h.49a.5.5 0 0 0 .505-.496v-.397a.499.499 0 0 0-.501-.496H4.295a.5.5 0 0 0-.5.496v.397a.5.5 0 0 0 .5.496h.49l.004.485V5.92zM5.46 7.111a.68.68 0 0 1 .682-.676.68.68 0 0 1 .68.676.68.68 0 0 1-.68.676.68.68 0 0 1-.682-.676z"/></g></g></svg>