<svg xmlns="http://www.w3.org/2000/svg" width="17" height="16" viewBox="0 0 17 16"><g><g><path fill="#fff" d="M16.509.88l-2.91 11.88a.163.163 0 0 1-.205.116L7.572 11.12a.16.16 0 0 1-.076-.256l5.795-6.791-7.545 6.385a.16.16 0 0 1-.156.034L.63 8.93a.16.16 0 1 1-.024-.296L16.278.7a.16.16 0 1 1 .23.18zm-7.13 12.073a.156.156 0 0 1-.014.14l-1.609 2.518a.163.163 0 0 1-.181.068.16.16 0 0 1-.117-.154v-3.007c0-.05.024-.098.066-.129a.16.16 0 0 1 .143-.024l1.609.49c.048.015.086.051.104.098z"/></g></g></svg>