<svg xmlns="http://www.w3.org/2000/svg" width="16" height="17" viewBox="0 0 16 17"><g><g><path fill="#fff" d="M15.95 5.48v9.318c0 .735-.597 1.33-1.333 1.33H1.275a1.332 1.332 0 0 1-1.333-1.33V5.479c0-.734.597-1.33 1.333-1.33h5.68l-2.24-2.683c-.035.007-.067.02-.104.02a.667.667 0 1 1 .667-.665.67.67 0 0 1-.045.225l2.59 3.103h.245l2.592-3.103a.656.656 0 0 1-.046-.225.668.668 0 0 1 1.334 0 .666.666 0 0 1-.667.665c-.037 0-.068-.013-.104-.02L8.937 4.15h5.68c.736 0 1.333.596 1.333 1.33zm-4.002 1.33c0-.735-.597-1.33-1.334-1.33H2.61c-.737 0-1.335.595-1.335 1.33v6.656c0 .735.598 1.332 1.335 1.332h8.004c.737 0 1.334-.597 1.334-1.332zm2.918-.243a.952.952 0 1 0-.952.95.952.952 0 0 0 .952-.95z"/></g></g></svg>